# xmcd CD database file
#
# Track frame offsets:
#	150
#	14662
#	27193
#	40578
#	53952
#	73023
#	86781
#	106177
#	129092
#	149947
#	170920
#	185185
#	206127
#	223275
#	238360
#	268415
#	291587
#
# Disc length: 4190 seconds
#
# Revision: 0
# Processed by: cddbd v1.4PL0 Copyright (c) Steve Scherf et al.
# Submitted via: Feurio! 1.64 - http://www.feurio.com
#
DISCID=25105c11
DTITLE=Matchbox Bluesband - Live im Blues and Beyond
DYEAR=1900
DGENRE=blues
TTITLE0=DATE BAIT
TTITLE1=WHAT KIND OF GAL IS THAT?
TTITLE2=DON'T WANT NO WOMAN
TTITLE3=YOU CAN HAVE MY HUSBAND
TTITLE4=THE BLUES NEVER DIE
TTITLE5=I'M A LITTLE MIXED UP
TTITLE6=IT'S LOVE BABY (24 HOURS A DAY)
TTITLE7=PHONOGRAPH BLUES
TTITLE8=GIMME YOUR BANKROLL
TTITLE9=MATCHBOX BLUES
TTITLE10=KIDDIO
TTITLE11=T-BONE SHUFFLE
TTITLE12=SUGAR-COATED LOVE
TTITLE13=NEXT TIME YOU SEE ME
TTITLE14=TOO YOUNG TO KNOW
TTITLE15=YOU CAN'T JUDGE A BOOK BY THE COVER/WHO DO YOU LOVE
TTITLE16=FEELIN'GOOD
EXTD=
EXTT0=
EXTT1=
EXTT2=
EXTT3=
EXTT4=
EXTT5=
EXTT6=
EXTT7=
EXTT8=
EXTT9=
EXTT10=
EXTT11=
EXTT12=
EXTT13=
EXTT14=
EXTT15=
EXTT16=
PLAYORDER=
